<?xml version='1.0' encoding='utf-8'?>
<svg xmlns="http://www.w3.org/2000/svg" version="1.1" viewBox="0 0 720 1424"> <g stroke-linejoin="miter"> <path d="m394.23 636.18v0.0011c85.739 84.534 86.682 198.56 2.6894 283.75l6e-5 9e-4c-0.88558 0.8975-1.7856 1.7974-2.69 2.6884l-10.018-10.161c0.85376-0.8421 1.7113-1.6991 2.5467-2.5466v9e-4c78.421-79.538 77.619-184.53-2.5472-263.57zm-128.45 225.13v6.6e-4c66.943-47.762 156.82-47.762 223.76-0.00136l-8.2876 11.616c-61.989-44.223-145.2-44.223-207.19 6.6e-4zm107.74-216.3v7e-4c-80.739 79.6-81.549 185.35-2.5675 265.46v-1.4e-4c0.844 0.85604 1.705 1.7166 2.5676 2.5672l-10.018 10.162c-0.90958-0.8967-1.8199-1.8072-2.7107-2.7107v6.6e-4c-84.552-85.762-83.602-200.55 2.7108-285.64zm3.4639 2.199v8.5e-4c-72.896 0.37315-131.69 59.77-131.31 132.67l1.3e-4 9.7e-4c0.36888 72.904 59.77 131.69 132.67 131.32l-0.00108 6.7e-4c72.893-0.37853 131.69-59.771 131.31-132.67v-2e-4c-0.36894-72.367-58.943-130.94-131.31-131.31l0.06016 4e-4 -1.4344 0.00435c-1.9009 0.00659-3.7257-0.74605-5.0696-2.0907-1.344-1.3446-2.0955-3.1698-2.0882-5.0706v6.5e-4 -0.00535l7.1712 7.1613m-0.07312-14.269c1.9035-0.00977 3.7316 0.74133 5.0784 2.0862 1.3466 1.345 2.1001 3.1721 2.0929 5.0754v1e-3 0.0039l-7.1579-7.1617 1.4341-0.0047 0.06015 9.3e-4c80.191 0.41276 145.1 65.319 145.51 145.51v-9.2e-4c0.41888 80.782-64.734 146.59-145.51 147.01l-8.7e-4 8e-4c-80.78 0.4089-146.6-64.728-147.01-145.52v9e-4c-0.41882-80.777 64.73-146.6 145.51-147.01zm7.8886 7.1347v7.6e-4 278.25l-14.27 6.6e-4 1.5e-4 -278.25zm132 146.26v9e-4l-278.26 0.0051-3.3e-4 -14.27 278.26-0.00592zm-242.72-96.65v9.2e-4c61.984 44.218 145.2 44.218 207.19-0.00157l8.2867 11.617c-66.947 47.756-156.82 47.757-223.76 6.6e-4z"/> <path d="m223.31 614.79-0.70467-160.66 21.661 0.03706-0.08288-9.4568c6.3539-3.2657 13.725-6.0631 21.678-8.3224l-0.1192-21.93c12.625-3.7017 28.609-5.9734 46.019-6.0499 23.274-0.10217 44.216 3.9802 57.802 9.9957 13.532-6.1344 34.061-10.207 57.329-10.309 17.415-0.07647 33.413 2.055 46.064 5.6456l0.07941 21.931c7.9729 2.1897 15.368 4.9218 21.75 8.1318l1.8e-4 9.4574 21.66-0.22717 0.70446 160.66-293.84 1.0976zm240.97-194.31c-10.312-1.9399-23.061-3.5576-37.149-3.496-21.918 0.09626-41.121 4.3013-53.329 8.9359l0.49543 143.02c13.423-5.2879 32.381-8.7718 53.263-8.8632 13.613-0.0599 26.375 1.2216 37.342 3.4885l-0.62287-143.08zm-151.61 170.36c-27.442 0.12043-51.877 6.0756-67.79 15.225l-0.56115-143-12.989 0.18927 0.62674 142.88 276.49-1.0211-0.62812-143.26-12.99-0.07495 0.69482 143.38c-15.992-9.0094-40.48-14.75-67.927-14.629-22.04 0.0966-42.121 3.6388-57.421 9.8839-15.361-6.1104-35.473-9.6682-57.512-9.5715zm-37.538-26.624c10.953-2.3693 23.697-3.7624 37.31-3.8223 20.887-0.0915 39.871 3.2317 53.344 8.3955l-0.7655-143.4c-11.859-4.7211-31.295-8.3725-53.207-8.2762-13.883 0.0609-26.733 1.9286-37.309 4.0142l0.62763 143.09zm94.858 14.247c-11.077-5.5828-32.719-9.476-57.51-9.3672-18.022 0.0788-34.263 2.189-46.064 5.5092l-0.45871-129.4c-4.8699 1.3956-9.1747 3.1293-13.347 4.9161l0.93913 142.67c16.246-6.5607 36.769-10.555 59.09-10.653 21.571-0.09456 41.466 3.2432 57.505 9.2768 15.986-6.1742 35.851-9.4946 57.423-9.589 22.321-0.0979 42.875 3.5242 59.18 9.942l-0.31963-142.48c-4.1803-1.7564-8.5003-3.4462-13.382-4.7989l0.4875 130.36c-11.828-3.2165-27.901-6.1443-45.922-6.0653-24.792 0.1087-46.59 4.1931-57.619 9.8727"/> </g> <g stroke-linejoin="miter"> <path d="m614.39 882.11 1.4e-4 0.0015c-28.503 50.152-72.57 91.163-127.03 115.45l-13.36-29.952c47.907-21.369 86.74-57.477 111.88-101.71z"/> <path d="m471.19 1004.2 2.4e-4 0.00156c-14.859 5.5195-30.388 9.8244-46.494 12.78l2.4e-4 0.00144c-43.06 7.8995-85.661 5.313-125.13-5.968l9.0121-31.533c34.726 9.9243 72.218 12.212 110.2 5.2423l3e-4 0.00145c14.221-2.611 27.911-6.4078 40.989-11.268z"/> <path d="m282.94 1005.7 2.4e-4 0.00147c-54.985-19.572-102.81-56.321-135.83-104.99l27.141-18.411c29.071 42.855 71.223 75.253 119.68 92.5z"/> <path d="m137.79 885.93 2.8e-4 0.00159c-15.951-27.084-27.492-57.363-33.484-90.02l2.74e-4 0.00144c-4.8255-26.298-5.7409-52.433-3.1472-77.797l32.626 3.336c-2.2813 22.309-1.481 45.328 2.7785 68.541l2.8e-4 0.0016c5.2881 28.819 15.457 55.475 29.485 79.293z"/> <path d="m103.49 700.8 2.76e-4 0.00145c9.7582-58.294 38.102-111.5 79.746-152.02l22.87 23.506c-36.716 35.723-61.682 82.62-70.27 133.92z"/> <path d="m549.82 533.63 2.4e-4 0.00155c44.036 36.17 77.135 86.152 91.986 144.9l-31.796 8.0374c-13.075-51.725-42.197-95.719-81.006-127.6z"/> <path d="m645.56 695.62 2e-4 0.00137c0.073 0.38963 0.10207 0.54638 0.17323 0.93443l1.3e-4 0.0015c11.016 60.036 1.6402 119.14-23.214 170.12l-29.479-14.373c21.89-44.896 30.146-96.906 20.435-149.83l5e-4 0.00145c-0.0597-0.32485-0.0934-0.50672-0.15333-0.82655z"/> </g> </svg>